<!DOCTYPE svg PUBLIC "-//W3C//DTD SVG 1.1//EN" "http://www.w3.org/Graphics/SVG/1.1/DTD/svg11.dtd">
<!-- Uploaded to: SVG Repo, www.svgrepo.com, Transformed by: SVG Repo Mixer Tools -->
<svg width="256px" height="256px" viewBox="-2.4 -2.4 28.80 28.80" fill="none" xmlns="http://www.w3.org/2000/svg" stroke="#fd0000" stroke-width="0.00024000000000000003" transform="matrix(1, 0, 0, 1, 0, 0)rotate(0)">
<g id="SVGRepo_bgCarrier" stroke-width="0">
<path transform="translate(-2.4, -2.4), scale(0.8999999999999999)" d="M16,26.96522514397899C18.347293302626053,26.87722607840975,20.53438645883911,26.192479495802125,22.61962321757377,25.111129716999756C25.057487358733873,23.846916510153473,27.95596353531522,22.763937378652464,28.999769733976677,20.223881233061434C30.061702822870792,17.639714103079847,28.569080444898763,14.840537435601423,27.960758324059235,12.113714038631468C27.27437223711852,9.036966412486315,27.641542732294663,5.3271997235482615,25.22491838499235,3.3029891170743966C22.787876517443628,1.2616764065491481,19.171596230743756,1.8781111684402931,16,2.095154932389658C13.036912573811325,2.297929687150988,10.014279861418924,2.7095982238536918,7.6489570829119025,4.505775511841092C5.312818872396569,6.279790641385372,4.192175798156325,9.081484095613657,3.176189962968147,11.833291538219113C2.1179849850077015,14.69944993659319,0.49788386893580583,17.836340239186903,1.6883501540059491,20.650136920552104C2.8665763777514726,23.435002884292746,6.243173987865481,24.400629964258954,9.00967189352777,25.621361223909865C11.234961958847688,26.603281773701976,13.569407348840585,27.056347068044552,16,26.96522514397899" fill="#80ff00" strokewidth="0"/>
</g>
<g id="SVGRepo_tracerCarrier" stroke-linecap="round" stroke-linejoin="round"/>
<g id="SVGRepo_iconCarrier"> <path d="M7.44714 7.10557C6.95319 6.8586 6.35255 7.05881 6.10557 7.55276C5.8586 8.04671 6.05881 8.64735 6.55276 8.89433L7.04348 9.13969C7.01504 9.25507 6.99995 9.37571 6.99995 9.49987C6.99995 10.3282 7.67149 10.9998 8.49987 10.9998C9.32825 10.9998 9.99978 10.3282 9.99978 9.49987L9.99979 8.99989C9.99979 8.49992 9.86852 8.31626 9.44703 8.10552L7.44714 7.10557Z" fill="#ff0000"/> <path d="M17.8942 7.55298C17.6472 7.05902 17.0466 6.85881 16.5527 7.10579L14.5528 8.10573C14.1313 8.31648 14 8.50013 14 9.0001L14 9.50008C14 10.3285 14.6715 11 15.4999 11C16.3283 11 16.9998 10.3285 16.9998 9.50008C16.9998 9.37592 16.9848 9.25528 16.9563 9.1399L17.447 8.89454C17.941 8.64757 18.1412 8.04693 17.8942 7.55298Z" fill="#ff0000"/> <path fill-rule="evenodd" clip-rule="evenodd" d="M7.01667 14.2938C6.94361 13.5362 7.5615 13 8.20001 13H15.8C16.4385 13 17.0564 13.5362 16.9834 14.2938C16.9395 14.7489 16.7676 15.7884 16.0452 16.7336C15.2826 17.7313 14.0006 18.5 12 18.5C9.99939 18.5 8.71737 17.7313 7.95484 16.7336C7.23241 15.7884 7.06055 14.7489 7.01667 14.2938ZM9.24111 15C9.31664 15.1731 9.41527 15.3509 9.54388 15.5191C9.90188 15.9875 10.5782 16.5 12 16.5C13.4218 16.5 14.0981 15.9875 14.4561 15.5191C14.5847 15.3509 14.6834 15.1731 14.7589 15H9.24111Z" fill="#ff0000"/> <path fill-rule="evenodd" clip-rule="evenodd" d="M7.31841 2.0431L2.02457 0.0975463C0.65158 -0.407043 -0.557874 1.15124 0.271636 2.35609L2.77964 5.99892C1.65412 7.72469 1 9.78596 1 12C1 18.0751 5.92487 23 12 23C18.0751 23 23 18.0751 23 12C23 9.78596 22.3459 7.72469 21.2204 5.99892L23.7284 2.35609C24.5579 1.15124 23.3484 -0.407043 21.9754 0.0975463L16.6816 2.0431C15.2611 1.37403 13.6742 1 12 1C10.3258 1 8.73891 1.37403 7.31841 2.0431ZM5.16347 3.38192L2.81078 2.51728L4.0822 4.36399C4.42037 4.01342 4.78161 3.68525 5.16347 3.38192ZM21.1892 2.51728L19.9178 4.36399C19.5796 4.01342 19.2184 3.68525 18.8365 3.38192L21.1892 2.51728ZM12 20.9932C7.03321 20.9932 3.00683 16.9668 3.00683 12C3.00683 7.03321 7.03321 3.00683 12 3.00683C16.9668 3.00683 20.9932 7.03321 20.9932 12C20.9932 16.9668 16.9668 20.9932 12 20.9932Z" fill="#ff0000"/> </g>
</svg>